<svg xmlns="http://www.w3.org/2000/svg" width="84.761" height="40" viewBox="0 0 84.761 40">
  <path id="Exclusion_3" data-name="Exclusion 3" d="M80.721,40H4.074a4.179,4.179,0,0,1-.821-.081,4.088,4.088,0,0,1-2.06-1.09,4.044,4.044,0,0,1-.5-.592,3.975,3.975,0,0,1-.376-.679A3.921,3.921,0,0,1,0,36V3.949A3.917,3.917,0,0,1,.263,2.532,3.959,3.959,0,0,1,.574,1.9a4.022,4.022,0,0,1,.414-.563A4.086,4.086,0,0,1,2.73.174,4.124,4.124,0,0,1,3.437,0h77.92A4.09,4.09,0,0,1,83.64,1.161,4,4,0,0,1,84.382,2.2a3.912,3.912,0,0,1,.379,1.242V36.514a3.918,3.918,0,0,1-.448,1.374,4.009,4.009,0,0,1-.4.593,4.083,4.083,0,0,1-1.726,1.251,4.123,4.123,0,0,1-1.47.268h0ZM65.531,31.7h0a5.5,5.5,0,0,0,1.175.79,6.333,6.333,0,0,0,2.548.524,5,5,0,0,0,2.954-.889,3.97,3.97,0,0,0,1.618-2.155,13.359,13.359,0,0,0,.319-3.4v-6.8a25.161,25.161,0,0,0-.106-2.947,3.816,3.816,0,0,0-.684-1.609,3.734,3.734,0,0,0-1.672-1.287,6.313,6.313,0,0,0-2.427-.433,6.8,6.8,0,0,0-2.546.481,5.236,5.236,0,0,0-.908.531V7.341H58.5V32.7h6.772l.108-.419.149-.577ZM33.974,24h0l.01,8.148V32.7h6.723V7.341H31.277l-.064.485-.959,7.324-.322-2.162c-.267-1.972-.526-3.715-.77-5.18l-.077-.466H19.734V32.7h6.741v-.555l.011-8.374,1.247,8.453.07.476h4.98l.066-.481ZM41.769,7.341V32.7h8.326a18.027,18.027,0,0,0,3.567-.26,5.164,5.164,0,0,0,2.156-.978,3.83,3.83,0,0,0,1.279-2,19.24,19.24,0,0,0,.353-4.508V16.435a31.307,31.307,0,0,0-.242-4.711,4.887,4.887,0,0,0-1.2-2.4,5.415,5.415,0,0,0-2.776-1.547,27.517,27.517,0,0,0-6.119-.437H41.769Zm-30.629,0V32.7h7.536V7.341H11.14Zm38.955,24.8h.344Zm14.74,0h0l.4-1.545-.4,1.545Zm6.96-.409h0l.039-.027Zm.039-.027h0l.043-.03.061-.044-.061.044Zm.1-.074h0a4.574,4.574,0,0,0,.441-.366,3.671,3.671,0,0,0,.4-.445,3.111,3.111,0,0,0,.3-.481,2.9,2.9,0,0,0,.2-.516,7.784,7.784,0,0,0,.224-1.346c.05-.539.075-1.179.075-1.9v-6.8a25.278,25.278,0,0,0-.1-2.867,2.765,2.765,0,0,0-.2-.679c-.037-.087-.08-.176-.127-.264.047.088.09.177.127.264a2.767,2.767,0,0,1,.2.679,25.285,25.285,0,0,1,.1,2.867v6.8c0,.723-.025,1.363-.075,1.9a7.783,7.783,0,0,1-.224,1.346,2.9,2.9,0,0,1-.2.516,3.113,3.113,0,0,1-.3.481,3.67,3.67,0,0,1-.4.445A4.567,4.567,0,0,1,71.938,31.633Zm-5.969-.292a6.168,6.168,0,0,1-.735-.743,6.175,6.175,0,0,0,.735.743Zm.227-2.95c-.2,0-.221-.053-.245-.109a5.862,5.862,0,0,1-.148-1.828V20.046a6.584,6.584,0,0,1,.128-1.858c.01-.025.017-.029.024-.033a.418.418,0,0,1,.194-.031,1.16,1.16,0,0,1,.341.053.588.588,0,0,1,.193.092,2.069,2.069,0,0,1,.094.475,12.022,12.022,0,0,1,.056,1.3V26.26c0,.612-.016,1.107-.049,1.472a2.653,2.653,0,0,1-.083.529.615.615,0,0,1-.189.083A1.144,1.144,0,0,1,66.2,28.391Zm-.89-.447h0c-.007-.056-.014-.117-.02-.18s-.013-.155-.019-.239c.006.084.012.164.019.239h0C65.292,27.827,65.3,27.888,65.306,27.944ZM49.3,27.373h0V12.62a1.528,1.528,0,0,1,.578.121.444.444,0,0,1,.218.321,11.345,11.345,0,0,1,.093,1.985v9.4a7.133,7.133,0,0,1-.244,2.689.309.309,0,0,1-.13.1A1.594,1.594,0,0,1,49.3,27.373ZM65.238,15.784h0v0a5.871,5.871,0,0,1,.5-.5,5.889,5.889,0,0,0-.5.5h0Zm7.724-.146-.047-.07-.024-.035a2.743,2.743,0,0,0-.273-.331,2.941,2.941,0,0,0-.329-.292l-.062-.046.062.046a2.943,2.943,0,0,1,.329.292,2.742,2.742,0,0,1,.273.331l.024.035h0l.047.07ZM53.952,8.594,53.9,8.575l-.042-.016c-.091-.035-.186-.069-.283-.1.1.032.192.066.283.1l.042.016h0l.049.019ZM42.334,7.9h0Z" fill="#fff"/>
</svg>
