<svg xmlns="http://www.w3.org/2000/svg" width="63.167" height="40" viewBox="0 0 63.167 40">
  <path id="Wikipedia_s_W" data-name="Wikipedia&apos;s_W" d="M70.317,28.672a1.026,1.026,0,0,1-.211.622.6.6,0,0,1-.467.278,5.916,5.916,0,0,0-3.4,1.339,12.5,12.5,0,0,0-2.728,4.339L49.178,67.55c-.094.3-.356.45-.789.45a.884.884,0,0,1-.789-.45L39.561,50.739,30.317,67.55a.884.884,0,0,1-.789.45.8.8,0,0,1-.817-.45L14.628,35.25a11.167,11.167,0,0,0-2.783-4.2,7.629,7.629,0,0,0-4.072-1.478.543.543,0,0,1-.422-.239.814.814,0,0,1-.2-.544c0-.528.15-.789.45-.789q1.883,0,3.939.167,1.908.175,3.594.172,1.717,0,4.05-.172Q21.625,28,23.511,28c.3,0,.45.261.45.789s-.094.783-.278.783a5.588,5.588,0,0,0-2.967.956,2.552,2.552,0,0,0-1.083,2.139,4.33,4.33,0,0,0,.45,1.683L31.722,60.633l6.606-12.478L32.172,35.25a16.8,16.8,0,0,0-2.728-4.456,5.478,5.478,0,0,0-3.233-1.222.488.488,0,0,1-.378-.239.859.859,0,0,1-.183-.544c0-.528.128-.789.394-.789a32.965,32.965,0,0,1,3.456.167,28.274,28.274,0,0,0,3.233.172q1.683,0,3.567-.172Q38.242,28,40.122,28c.3,0,.45.261.45.789s-.089.783-.278.783q-3.767.258-3.767,2.139a6.821,6.821,0,0,0,.872,2.611l4.072,8.267,4.05-7.561a6.1,6.1,0,0,0,.844-2.7q0-2.583-3.767-2.756c-.228,0-.339-.261-.339-.783a.944.944,0,0,1,.167-.533c.117-.172.228-.256.339-.256q1.35,0,3.317.167c1.256.117,2.289.172,3.094.172.578,0,1.433-.05,2.556-.144C53.156,28.067,54.35,28,55.306,28c.222,0,.333.222.333.672q0,.9-.617.9a7.07,7.07,0,0,0-3.528,1.211,15.452,15.452,0,0,0-3.328,4.467l-5.4,9.983,7.311,14.894,10.794-25.1a6.788,6.788,0,0,0,.561-2.528q0-2.758-3.767-2.928c-.228,0-.339-.261-.339-.783s.167-.789.506-.789q1.375,0,3.261.167c1.161.117,2.139.172,2.922.172a27.075,27.075,0,0,0,2.867-.172c1.128-.111,2.139-.167,3.039-.167C70.183,28,70.317,28.222,70.317,28.672Z" transform="translate(-7.15 -28)" fill="#fff" fill-rule="evenodd"/>
</svg>
